<?xml version="1.0" encoding="UTF-8"?>
<!DOCTYPE svg PUBLIC "-//W3C//DTD SVG 1.1//EN" "http://www.w3.org/Graphics/SVG/1.1/DTD/svg11.dtd">
<svg version="1.1" xmlns="http://www.w3.org/2000/svg" xmlns:xlink="http://www.w3.org/1999/xlink" x="0" y="0" width="240" height="90" viewBox="0, 0, 240, 90">
  <g id="Layer_1">
    <path d="M53,2 C55.761,2 58,4.239 58,7 L58,23 C58,25.761 55.761,28 53,28 L7,28 C4.239,28 2,25.761 2,23 L2,7 C2,4.239 4.239,2 7,2 L53,2 z M21.061,10.1 Q19.21,10.1 18.231,11.107 Q16.919,12.297 16.919,14.67 Q16.919,16.996 18.231,18.232 Q19.21,19.24 21.061,19.24 Q22.913,19.24 23.892,18.232 Q25.198,16.996 25.198,14.67 Q25.198,12.297 23.892,11.107 Q22.913,10.1 21.061,10.1 z M21.061,11.629 Q22.134,11.629 22.764,12.423 Q23.394,13.217 23.393,14.67 Q23.394,16.129 22.764,16.92 Q22.134,17.711 21.061,17.711 Q19.989,17.711 19.351,16.92 Q18.712,16.129 18.712,14.67 Q18.712,13.211 19.351,12.42 Q19.989,11.629 21.061,11.629 z M41.628,10.363 L35.294,10.363 L35.294,19 L41.839,19 L41.839,17.447 L37.058,17.447 L37.058,15.226 L41.253,15.226 L41.253,13.726 L37.058,13.726 L37.058,11.892 L41.628,11.892 L41.628,10.363 z M10.438,10.363 L8.546,10.363 L8.546,19 L10.227,19 L10.227,12.865 L13.755,19 L15.559,19 L15.559,10.363 L13.878,10.363 L13.878,16.392 L10.438,10.363 z M30.296,10.363 L26.575,10.363 L26.575,19 L30.296,19 Q32.253,19 33.19,17.389 Q33.882,16.193 33.882,14.471 Q33.882,13.791 33.718,13.041 Q33.554,12.291 33.103,11.646 Q32.54,10.85 31.632,10.551 Q31.099,10.375 30.296,10.363 z M29.991,11.863 Q31.222,11.863 31.635,12.569 Q32.048,13.275 32.048,14.594 Q32.048,15.549 31.772,16.24 Q31.269,17.5 29.991,17.5 L28.327,17.5 L28.327,11.863 L29.991,11.863 z M50.206,10.504 L48.817,10.504 Q48.817,10.615 48.753,10.844 Q48.642,11.225 48.425,11.453 Q48.108,11.787 47.604,11.898 Q47.288,11.969 46.497,12.004 L46.497,13.141 L48.495,13.141 L48.495,19 L50.206,19 L50.206,10.504 z" fill="#AAAAAA"/>
    <path d="M113,2 C115.761,2 118,4.239 118,7 L118,23 C118,25.761 115.761,28 113,28 L67,28 C64.239,28 62,25.761 62,23 L62,7 C62,4.239 64.239,2 67,2 L113,2 z M81.062,10.1 Q79.21,10.1 78.231,11.107 Q76.919,12.297 76.919,14.67 Q76.919,16.996 78.231,18.232 Q79.21,19.24 81.062,19.24 Q82.913,19.24 83.892,18.232 Q85.198,16.996 85.198,14.67 Q85.198,12.297 83.892,11.107 Q82.913,10.1 81.062,10.1 z M81.062,11.629 Q82.134,11.629 82.764,12.423 Q83.394,13.217 83.394,14.67 Q83.394,16.129 82.764,16.92 Q82.134,17.711 81.062,17.711 Q79.989,17.711 79.351,16.92 Q78.712,16.129 78.712,14.67 Q78.712,13.211 79.351,12.42 Q79.989,11.629 81.062,11.629 z M101.628,10.363 L95.294,10.363 L95.294,19 L101.839,19 L101.839,17.447 L97.058,17.447 L97.058,15.226 L101.253,15.226 L101.253,13.726 L97.058,13.726 L97.058,11.892 L101.628,11.892 L101.628,10.363 z M70.438,10.363 L68.546,10.363 L68.546,19 L70.228,19 L70.228,12.865 L73.755,19 L75.56,19 L75.56,10.363 L73.878,10.363 L73.878,16.392 L70.438,10.363 z M90.296,10.363 L86.575,10.363 L86.575,19 L90.296,19 Q92.253,19 93.19,17.389 Q93.882,16.193 93.882,14.471 Q93.882,13.791 93.718,13.041 Q93.554,12.291 93.103,11.646 Q92.54,10.85 91.632,10.551 Q91.099,10.375 90.296,10.363 z M89.991,11.863 Q91.222,11.863 91.635,12.569 Q92.048,13.275 92.048,14.594 Q92.048,15.549 91.772,16.24 Q91.269,17.5 89.991,17.5 L88.327,17.5 L88.327,11.863 L89.991,11.863 z M108.899,10.463 Q107.194,10.463 106.526,11.734 Q106.175,12.402 106.134,13.486 L107.757,13.486 Q107.786,12.771 107.944,12.443 Q108.22,11.875 108.981,11.875 Q109.538,11.875 109.837,12.232 Q110.136,12.59 110.136,13.129 Q110.136,13.791 109.614,14.348 Q109.274,14.705 108.12,15.531 Q106.79,16.48 106.433,17.33 Q106.063,18.086 106.04,19 L111.858,19 L111.858,17.529 L108.149,17.529 Q108.308,17.266 108.539,17.066 Q108.771,16.867 109.397,16.422 L110.065,15.947 Q110.909,15.35 111.278,14.863 Q111.841,14.131 111.841,13.187 Q111.841,11.957 111.044,11.21 Q110.247,10.463 108.899,10.463 z" fill="#AAAAAA"/>
    <path d="M173,2 C175.761,2 178,4.239 178,7 L178,23 C178,25.761 175.761,28 173,28 L127,28 C124.239,28 122,25.761 122,23 L122,7 C122,4.239 124.239,2 127,2 L173,2 z M157.075,10.363 L152.839,10.363 L152.839,19 L154.602,19 L154.602,15.613 L156.466,15.613 Q157.263,15.613 157.553,15.889 Q157.843,16.164 157.854,16.99 L157.866,17.793 Q157.872,18.174 157.942,18.537 Q157.978,18.713 158.059,19 L160.046,19 L160.046,18.783 Q159.788,18.625 159.718,18.291 Q159.671,18.08 159.671,17.488 L159.671,16.908 Q159.671,16 159.422,15.558 Q159.173,15.115 158.575,14.875 Q159.29,14.629 159.6,14.034 Q159.911,13.439 159.911,12.824 Q159.911,12.314 159.747,11.916 Q159.583,11.518 159.302,11.189 Q158.962,10.791 158.473,10.586 Q157.983,10.381 157.075,10.363 z M156.7,11.863 Q157.286,11.863 157.579,12.016 Q158.101,12.285 158.1,13.07 Q158.101,13.797 157.561,14.043 Q157.257,14.184 156.647,14.184 L154.602,14.184 L154.602,11.863 L156.7,11.863 z M144.413,10.363 L137.417,10.363 L137.417,11.892 L140.013,11.892 L140.013,19 L141.829,19 L141.829,11.892 L144.413,11.892 L144.413,10.363 z M134.868,10.363 L132.829,10.363 L129.747,19 L131.634,19 L132.231,17.225 L135.413,17.225 L135.97,19 L137.927,19 L134.868,10.363 z M133.831,12.338 L134.909,15.736 L132.718,15.736 L133.831,12.338 z M151.743,10.363 L144.747,10.363 L144.747,11.892 L147.343,11.892 L147.343,19 L149.159,19 L149.159,11.892 L151.743,11.892 L151.743,10.363 z M168.425,10.504 L167.036,10.504 Q167.036,10.615 166.972,10.844 Q166.86,11.225 166.643,11.453 Q166.327,11.787 165.823,11.898 Q165.507,11.969 164.716,12.004 L164.716,13.141 L166.714,13.141 L166.714,19 L168.425,19 L168.425,10.504 z" fill="#AAAAAA"/>
    <path d="M233,2 C235.761,2 238,4.239 238,7 L238,23 C238,25.761 235.761,28 233,28 L187,28 C184.239,28 182,25.761 182,23 L182,7 C182,4.239 184.239,2 187,2 L233,2 z M217.075,10.363 L212.839,10.363 L212.839,19 L214.602,19 L214.602,15.613 L216.466,15.613 Q217.263,15.613 217.553,15.889 Q217.843,16.164 217.854,16.99 L217.866,17.793 Q217.872,18.174 217.942,18.537 Q217.978,18.713 218.059,19 L220.046,19 L220.046,18.783 Q219.788,18.625 219.718,18.291 Q219.671,18.08 219.671,17.488 L219.671,16.908 Q219.671,16 219.422,15.558 Q219.173,15.115 218.575,14.875 Q219.29,14.629 219.6,14.034 Q219.911,13.439 219.911,12.824 Q219.911,12.314 219.747,11.916 Q219.583,11.518 219.302,11.189 Q218.962,10.791 218.473,10.586 Q217.983,10.381 217.075,10.363 z M216.7,11.863 Q217.286,11.863 217.579,12.016 Q218.101,12.285 218.1,13.07 Q218.101,13.797 217.561,14.043 Q217.257,14.184 216.647,14.183 L214.602,14.183 L214.602,11.863 L216.7,11.863 z M204.413,10.363 L197.417,10.363 L197.417,11.892 L200.013,11.892 L200.013,19 L201.829,19 L201.829,11.892 L204.413,11.892 L204.413,10.363 z M194.868,10.363 L192.829,10.363 L189.747,19 L191.634,19 L192.231,17.225 L195.413,17.225 L195.97,19 L197.927,19 L194.868,10.363 z M193.831,12.338 L194.909,15.736 L192.718,15.736 L193.831,12.338 z M211.743,10.363 L204.747,10.363 L204.747,11.892 L207.343,11.892 L207.343,19 L209.159,19 L209.159,11.892 L211.743,11.892 L211.743,10.363 z M227.118,10.463 Q225.413,10.463 224.745,11.734 Q224.394,12.402 224.352,13.486 L225.975,13.486 Q226.005,12.771 226.163,12.443 Q226.438,11.875 227.2,11.875 Q227.757,11.875 228.056,12.232 Q228.354,12.59 228.354,13.129 Q228.354,13.791 227.833,14.348 Q227.493,14.705 226.339,15.531 Q225.009,16.48 224.651,17.33 Q224.282,18.086 224.259,19 L230.077,19 L230.077,17.529 L226.368,17.529 Q226.526,17.266 226.758,17.066 Q226.989,16.867 227.616,16.422 L228.284,15.947 Q229.128,15.35 229.497,14.863 Q230.06,14.131 230.059,13.187 Q230.06,11.957 229.263,11.21 Q228.466,10.463 227.118,10.463 z" fill="#AAAAAA"/>
    <path d="M28.942,45.736 L31.134,45.736 L30.056,42.338 z M29.054,40.363 L31.093,40.363 L34.151,49 L32.194,49 L31.638,47.225 L28.456,47.225 L27.858,49 L25.972,49 z" fill="#AAAAAA"/>
    <path d="M88.333,41.863 L88.333,43.768 L90.454,43.768 Q91.022,43.768 91.377,43.554 Q91.731,43.34 91.731,42.795 Q91.731,42.191 91.263,41.998 Q90.858,41.863 90.231,41.863 z M88.333,45.197 L88.333,47.5 L90.454,47.5 Q91.022,47.5 91.339,47.348 Q91.913,47.066 91.913,46.27 Q91.913,45.596 91.356,45.344 Q91.046,45.203 90.483,45.197 z M90.806,40.363 Q92.394,40.387 93.056,41.283 Q93.454,41.834 93.454,42.602 Q93.454,43.393 93.056,43.873 Q92.833,44.143 92.399,44.365 Q93.062,44.605 93.398,45.127 Q93.735,45.648 93.735,46.393 Q93.735,47.16 93.349,47.77 Q93.103,48.174 92.733,48.449 Q92.317,48.766 91.752,48.883 Q91.187,49 90.524,49 L86.61,49 L86.61,40.363 z" fill="#AAAAAA"/>
    <g>
      <path d="M140.821,43.141 L140.821,42.004 Q141.612,41.969 141.929,41.898 Q142.433,41.787 142.749,41.453 Q142.966,41.225 143.077,40.844 Q143.142,40.615 143.142,40.504 L144.53,40.504 L144.53,49 L142.819,49 L142.819,43.141 z" fill="#AAAAAA"/>
      <path d="M147.038,49 Q147.062,48.086 147.431,47.33 Q147.788,46.48 149.118,45.531 Q150.272,44.705 150.612,44.348 Q151.134,43.791 151.134,43.129 Q151.134,42.59 150.835,42.232 Q150.536,41.875 149.979,41.875 Q149.218,41.875 148.942,42.443 Q148.784,42.771 148.755,43.486 L147.132,43.486 Q147.173,42.402 147.524,41.734 Q148.192,40.463 149.897,40.463 Q151.245,40.463 152.042,41.21 Q152.839,41.957 152.839,43.188 Q152.839,44.131 152.276,44.863 Q151.907,45.35 151.063,45.947 L150.396,46.422 Q149.769,46.867 149.537,47.066 Q149.306,47.266 149.147,47.529 L152.856,47.529 L152.856,49 z" fill="#AAAAAA"/>
      <path d="M155.294,46.393 Q155.294,46.902 155.458,47.236 Q155.763,47.852 156.565,47.852 Q157.058,47.852 157.424,47.515 Q157.79,47.178 157.79,46.545 Q157.79,45.707 157.11,45.426 Q156.724,45.268 155.892,45.268 L155.892,44.072 Q156.706,44.061 157.028,43.914 Q157.585,43.668 157.585,42.918 Q157.585,42.432 157.301,42.127 Q157.017,41.822 156.501,41.822 Q155.909,41.822 155.631,42.197 Q155.353,42.572 155.364,43.199 L153.806,43.199 Q153.829,42.566 154.022,41.998 Q154.228,41.5 154.667,41.078 Q154.995,40.779 155.446,40.621 Q155.897,40.463 156.554,40.463 Q157.772,40.463 158.52,41.093 Q159.267,41.723 159.267,42.783 Q159.267,43.533 158.821,44.049 Q158.54,44.371 158.235,44.488 Q158.464,44.488 158.892,44.881 Q159.53,45.473 159.53,46.498 Q159.53,47.576 158.783,48.394 Q158.036,49.211 156.571,49.211 Q154.767,49.211 154.063,48.033 Q153.694,47.406 153.653,46.393 z" fill="#AAAAAA"/>
    </g>
    <g>
      <path d="M206.265,47.172 L205.304,47.172 L205.304,49 L203.669,49 L203.669,47.172 L200.306,47.172 L200.306,45.713 L203.429,40.557 L205.304,40.557 L205.304,45.865 L206.265,45.865 z M203.669,45.865 L203.669,42.197 L201.542,45.865 z" fill="#AAAAAA"/>
      <path d="M208.644,46.727 Q208.743,47.271 209.024,47.567 Q209.306,47.863 209.845,47.863 Q210.466,47.863 210.791,47.427 Q211.116,46.99 211.116,46.328 Q211.116,45.678 210.812,45.229 Q210.507,44.781 209.862,44.781 Q209.558,44.781 209.335,44.857 Q208.942,44.998 208.743,45.379 L207.243,45.309 L207.841,40.615 L212.522,40.615 L212.522,42.033 L209.048,42.033 L208.743,43.891 Q209.13,43.639 209.347,43.557 Q209.71,43.422 210.231,43.422 Q211.286,43.422 212.071,44.131 Q212.856,44.84 212.856,46.193 Q212.856,47.371 212.101,48.297 Q211.345,49.223 209.839,49.223 Q208.626,49.223 207.847,48.572 Q207.067,47.922 206.979,46.727 z" fill="#AAAAAA"/>
      <path d="M215.388,46.311 Q215.388,46.996 215.757,47.43 Q216.126,47.863 216.694,47.863 Q217.251,47.863 217.57,47.444 Q217.89,47.025 217.89,46.357 Q217.89,45.613 217.526,45.218 Q217.163,44.822 216.636,44.822 Q216.208,44.822 215.88,45.08 Q215.388,45.461 215.388,46.311 z M217.737,42.643 Q217.737,42.438 217.579,42.191 Q217.31,41.793 216.765,41.793 Q215.95,41.793 215.604,42.707 Q215.417,43.211 215.347,44.195 Q215.657,43.826 216.067,43.656 Q216.478,43.486 217.005,43.486 Q218.136,43.486 218.859,44.254 Q219.583,45.021 219.583,46.217 Q219.583,47.406 218.874,48.314 Q218.165,49.223 216.671,49.223 Q215.065,49.223 214.304,47.881 Q213.712,46.832 213.712,45.174 Q213.712,44.201 213.794,43.592 Q213.94,42.508 214.362,41.787 Q214.726,41.172 215.314,40.797 Q215.903,40.422 216.724,40.422 Q217.907,40.422 218.61,41.028 Q219.313,41.635 219.401,42.643 z" fill="#AAAAAA"/>
    </g>
    <g>
      <path d="M30,71.5 C29.034,71.5 28.25,70.716 28.25,69.75 C28.25,68.784 29.034,68 30,68 C30.966,68 31.75,68.784 31.75,69.75 C31.75,70.716 30.966,71.5 30,71.5 z" fill="#AAAAAA"/>
      <path d="M30,76.75 C29.034,76.75 28.25,75.966 28.25,75 C28.25,74.034 29.034,73.25 30,73.25 C30.966,73.25 31.75,74.034 31.75,75 C31.75,75.966 30.966,76.75 30,76.75 z" fill="#AAAAAA"/>
      <path d="M30,82 C29.034,82 28.25,81.216 28.25,80.25 C28.25,79.284 29.034,78.5 30,78.5 C30.966,78.5 31.75,79.284 31.75,80.25 C31.75,81.216 30.966,82 30,82 z" fill="#AAAAAA"/>
    </g>
    <g>
      <path d="M90,71.5 C89.034,71.5 88.25,70.716 88.25,69.75 C88.25,68.784 89.034,68 90,68 C90.966,68 91.75,68.784 91.75,69.75 C91.75,70.716 90.966,71.5 90,71.5 z" fill="#AAAAAA"/>
      <path d="M90,76.75 C89.034,76.75 88.25,75.966 88.25,75 C88.25,74.034 89.034,73.25 90,73.25 C90.966,73.25 91.75,74.034 91.75,75 C91.75,75.966 90.966,76.75 90,76.75 z" fill="#AAAAAA"/>
      <path d="M90,82 C89.034,82 88.25,81.216 88.25,80.25 C88.25,79.284 89.034,78.5 90,78.5 C90.966,78.5 91.75,79.284 91.75,80.25 C91.75,81.216 90.966,82 90,82 z" fill="#AAAAAA"/>
    </g>
    <g>
      <path d="M150,71.5 C149.034,71.5 148.25,70.716 148.25,69.75 C148.25,68.784 149.034,68 150,68 C150.966,68 151.75,68.784 151.75,69.75 C151.75,70.716 150.966,71.5 150,71.5 z" fill="#AAAAAA"/>
      <path d="M150,76.75 C149.034,76.75 148.25,75.966 148.25,75 C148.25,74.034 149.034,73.25 150,73.25 C150.966,73.25 151.75,74.034 151.75,75 C151.75,75.966 150.966,76.75 150,76.75 z" fill="#AAAAAA"/>
      <path d="M150,82 C149.034,82 148.25,81.216 148.25,80.25 C148.25,79.284 149.034,78.5 150,78.5 C150.966,78.5 151.75,79.284 151.75,80.25 C151.75,81.216 150.966,82 150,82 z" fill="#AAAAAA"/>
    </g>
    <g>
      <path d="M210,71.5 C209.034,71.5 208.25,70.716 208.25,69.75 C208.25,68.784 209.034,68 210,68 C210.966,68 211.75,68.784 211.75,69.75 C211.75,70.716 210.966,71.5 210,71.5 z" fill="#AAAAAA"/>
      <path d="M210,76.75 C209.034,76.75 208.25,75.966 208.25,75 C208.25,74.034 209.034,73.25 210,73.25 C210.966,73.25 211.75,74.034 211.75,75 C211.75,75.966 210.966,76.75 210,76.75 z" fill="#AAAAAA"/>
      <path d="M210,82 C209.034,82 208.25,81.216 208.25,80.25 C208.25,79.284 209.034,78.5 210,78.5 C210.966,78.5 211.75,79.284 211.75,80.25 C211.75,81.216 210.966,82 210,82 z" fill="#AAAAAA"/>
    </g>
  </g>
</svg>
