<?xml version="1.0" encoding="UTF-8"?>
<!DOCTYPE svg PUBLIC "-//W3C//DTD SVG 1.1//EN" "http://www.w3.org/Graphics/SVG/1.1/DTD/svg11.dtd">
<svg version="1.1" xmlns="http://www.w3.org/2000/svg" xmlns:xlink="http://www.w3.org/1999/xlink" x="0" y="0" width="96" height="96" viewBox="0, 0, 96, 96">
  <g id="Layer_1">
    <path d="M54.303,53.414 C55.834,53.414 57.075,54.656 57.075,56.186 C57.075,57.716 55.834,58.958 54.303,58.958 C52.773,58.958 51.531,57.716 51.531,56.186 C51.531,55.477 51.8,54.804 52.279,54.293 L51.034,51.809 C50.913,51.824 50.791,51.831 50.669,51.831 C50.048,51.831 49.449,51.645 48.941,51.298 L47.532,52.539 C47.542,52.612 47.546,52.685 47.546,52.759 C47.546,53.693 46.789,54.45 45.855,54.45 C44.922,54.45 44.164,53.693 44.164,52.759 C44.164,51.825 44.922,51.068 45.855,51.068 C46.016,51.068 46.176,51.091 46.33,51.136 L47.798,49.843 C47.723,49.644 47.669,49.438 47.637,49.228 L44.138,48.757 C43.659,49.646 42.726,50.215 41.697,50.215 C40.166,50.215 38.925,48.974 38.925,47.443 C38.925,45.913 40.166,44.672 41.697,44.672 C43.043,44.672 44.18,45.637 44.421,46.932 L47.92,47.404 C47.943,47.357 47.968,47.31 47.994,47.265 L45.32,44.535 C44.973,44.685 44.599,44.763 44.218,44.763 C42.688,44.763 41.446,43.522 41.446,41.991 C41.446,40.461 42.688,39.219 44.218,39.219 C45.157,39.219 46.022,39.693 46.531,40.463 L50.574,39.444 C50.755,38.085 51.92,37.042 53.321,37.042 C54.851,37.042 56.093,38.284 56.093,39.814 C56.093,41.307 54.912,42.524 53.434,42.584 L52.339,46.192 C53.203,46.754 53.735,47.717 53.735,48.764 C53.735,49.644 53.361,50.469 52.715,51.048 L53.915,53.441 C54.043,53.423 54.173,53.414 54.303,53.414 z M50.561,45.7 L51.671,42.041 C51.388,41.831 51.146,41.568 50.961,41.268 L46.976,42.273 C46.94,42.625 46.838,42.965 46.673,43.278 L49.339,46 C49.721,45.817 50.136,45.714 50.561,45.7 z" fill="#808080" fill-opacity="0.162"/>
  </g>
</svg>
