<?xml version="1.0" encoding="UTF-8"?>
<!DOCTYPE svg PUBLIC "-//W3C//DTD SVG 1.1//EN" "http://www.w3.org/Graphics/SVG/1.1/DTD/svg11.dtd">
<svg version="1.1" xmlns="http://www.w3.org/2000/svg" xmlns:xlink="http://www.w3.org/1999/xlink" x="0" y="0" width="180" height="90" viewBox="0, 0, 180, 90">
  <g id="Layer_1">
    <path d="M53,2 C55.761,2 58,4.239 58,7 L58,23 C58,25.761 55.761,28 53,28 L7,28 C4.239,28 2,25.761 2,23 L2,7 C2,4.239 4.239,2 7,2 L53,2 z M26.065,10.1 Q24.214,10.1 23.235,11.107 Q21.923,12.297 21.923,14.67 Q21.923,16.996 23.235,18.232 Q24.214,19.24 26.065,19.24 Q27.917,19.24 28.896,18.232 Q30.202,16.996 30.202,14.67 Q30.202,12.297 28.896,11.107 Q27.917,10.1 26.065,10.1 z M26.065,11.629 Q27.138,11.629 27.767,12.423 Q28.397,13.217 28.397,14.67 Q28.397,16.129 27.767,16.92 Q27.138,17.711 26.065,17.711 Q24.993,17.711 24.354,16.92 Q23.716,16.129 23.716,14.67 Q23.716,13.211 24.354,12.42 Q24.993,11.629 26.065,11.629 z M35.3,10.363 L31.579,10.363 L31.579,19 L35.3,19 Q37.257,19 38.194,17.389 Q38.886,16.193 38.886,14.471 Q38.886,13.791 38.722,13.041 Q38.558,12.291 38.106,11.646 Q37.544,10.85 36.636,10.551 Q36.103,10.375 35.3,10.363 z M34.995,11.863 Q36.226,11.863 36.639,12.569 Q37.052,13.275 37.052,14.594 Q37.052,15.549 36.776,16.24 Q36.272,17.5 34.995,17.5 L33.331,17.5 L33.331,11.863 L34.995,11.863 z M15.442,10.363 L13.55,10.363 L13.55,19 L15.231,19 L15.231,12.865 L18.759,19 L20.563,19 L20.563,10.363 L18.882,10.363 L18.882,16.392 L15.442,10.363 z M46.632,10.363 L40.298,10.363 L40.298,19 L46.843,19 L46.843,17.447 L42.062,17.447 L42.062,15.226 L46.257,15.226 L46.257,13.726 L42.062,13.726 L42.062,11.892 L46.632,11.892 L46.632,10.363 z" fill="#AAAAAA"/>
    <path d="M113,2 C115.761,2 118,4.239 118,7 L118,23 C118,25.761 115.761,28 113,28 L67,28 C64.239,28 62,25.761 62,23 L62,7 C62,4.239 64.239,2 67,2 L113,2 z M97.075,10.363 L92.839,10.363 L92.839,19 L94.603,19 L94.603,15.613 L96.466,15.613 Q97.263,15.613 97.553,15.889 Q97.843,16.164 97.854,16.99 L97.866,17.793 Q97.872,18.174 97.942,18.537 Q97.978,18.713 98.06,19 L100.046,19 L100.046,18.783 Q99.788,18.625 99.718,18.291 Q99.671,18.08 99.671,17.488 L99.671,16.908 Q99.671,16 99.422,15.558 Q99.173,15.115 98.575,14.875 Q99.29,14.629 99.601,14.034 Q99.911,13.439 99.911,12.824 Q99.911,12.314 99.747,11.916 Q99.583,11.518 99.302,11.189 Q98.962,10.791 98.473,10.586 Q97.983,10.381 97.075,10.363 z M96.7,11.863 Q97.286,11.863 97.579,12.016 Q98.101,12.285 98.101,13.07 Q98.101,13.797 97.562,14.043 Q97.257,14.184 96.647,14.184 L94.603,14.184 L94.603,11.863 L96.7,11.863 z M84.413,10.363 L77.417,10.363 L77.417,11.892 L80.013,11.892 L80.013,19 L81.829,19 L81.829,11.892 L84.413,11.892 L84.413,10.363 z M74.868,10.363 L72.829,10.363 L69.747,19 L71.634,19 L72.231,17.225 L75.413,17.225 L75.97,19 L77.927,19 L74.868,10.363 z M73.831,12.338 L74.909,15.736 L72.718,15.736 L73.831,12.338 z M91.743,10.363 L84.747,10.363 L84.747,11.892 L87.343,11.892 L87.343,19 L89.159,19 L89.159,11.892 L91.743,11.892 L91.743,10.363 z M108.425,10.504 L107.036,10.504 Q107.036,10.615 106.972,10.844 Q106.86,11.225 106.644,11.453 Q106.327,11.787 105.823,11.898 Q105.507,11.969 104.716,12.004 L104.716,13.141 L106.714,13.141 L106.714,19 L108.425,19 L108.425,10.504 z" fill="#AAAAAA"/>
    <path d="M173,2 C175.761,2 178,4.239 178,7 L178,23 C178,25.761 175.761,28 173,28 L127,28 C124.239,28 122,25.761 122,23 L122,7 C122,4.239 124.239,2 127,2 L173,2 z M157.075,10.363 L152.839,10.363 L152.839,19 L154.602,19 L154.602,15.613 L156.466,15.613 Q157.263,15.613 157.553,15.889 Q157.843,16.164 157.854,16.99 L157.866,17.793 Q157.872,18.174 157.942,18.537 Q157.978,18.713 158.059,19 L160.046,19 L160.046,18.783 Q159.788,18.625 159.718,18.291 Q159.671,18.08 159.671,17.488 L159.671,16.908 Q159.671,16 159.422,15.558 Q159.173,15.115 158.575,14.875 Q159.29,14.629 159.6,14.034 Q159.911,13.439 159.911,12.824 Q159.911,12.314 159.747,11.916 Q159.583,11.518 159.302,11.189 Q158.962,10.791 158.473,10.586 Q157.983,10.381 157.075,10.363 z M156.7,11.863 Q157.286,11.863 157.579,12.016 Q158.101,12.285 158.1,13.07 Q158.101,13.797 157.561,14.043 Q157.257,14.184 156.647,14.184 L154.602,14.184 L154.602,11.863 L156.7,11.863 z M144.413,10.363 L137.417,10.363 L137.417,11.892 L140.013,11.892 L140.013,19 L141.829,19 L141.829,11.892 L144.413,11.892 L144.413,10.363 z M134.868,10.363 L132.829,10.363 L129.747,19 L131.634,19 L132.231,17.225 L135.413,17.225 L135.97,19 L137.927,19 L134.868,10.363 z M133.831,12.338 L134.909,15.736 L132.718,15.736 L133.831,12.338 z M151.743,10.363 L144.747,10.363 L144.747,11.892 L147.343,11.892 L147.343,19 L149.159,19 L149.159,11.892 L151.743,11.892 L151.743,10.363 z M167.118,10.463 Q165.413,10.463 164.745,11.734 Q164.394,12.402 164.352,13.486 L165.975,13.486 Q166.005,12.771 166.163,12.443 Q166.438,11.875 167.2,11.875 Q167.757,11.875 168.056,12.232 Q168.354,12.59 168.354,13.129 Q168.354,13.791 167.833,14.348 Q167.493,14.705 166.339,15.531 Q165.009,16.48 164.651,17.33 Q164.282,18.086 164.259,19 L170.077,19 L170.077,17.529 L166.368,17.529 Q166.526,17.266 166.758,17.066 Q166.989,16.867 167.616,16.422 L168.284,15.947 Q169.128,15.35 169.497,14.863 Q170.06,14.131 170.059,13.187 Q170.06,11.957 169.263,11.21 Q168.466,10.463 167.118,10.463 z" fill="#AAAAAA"/>
    <path d="M28.942,45.736 L31.134,45.736 L30.056,42.338 z M29.054,40.363 L31.093,40.363 L34.151,49 L32.194,49 L31.638,47.225 L28.456,47.225 L27.858,49 L25.972,49 z" fill="#AAAAAA"/>
    <path d="M80.821,43.141 L80.821,42.004 Q81.612,41.969 81.929,41.898 Q82.433,41.787 82.749,41.453 Q82.966,41.225 83.077,40.844 Q83.142,40.615 83.142,40.504 L84.53,40.504 L84.53,49 L82.819,49 L82.819,43.141 z" fill="#AAAAAA"/>
    <path d="M87.038,49 Q87.062,48.086 87.431,47.33 Q87.788,46.48 89.118,45.531 Q90.272,44.705 90.612,44.348 Q91.134,43.791 91.134,43.129 Q91.134,42.59 90.835,42.232 Q90.536,41.875 89.979,41.875 Q89.218,41.875 88.942,42.443 Q88.784,42.771 88.755,43.486 L87.132,43.486 Q87.173,42.402 87.524,41.734 Q88.192,40.463 89.897,40.463 Q91.245,40.463 92.042,41.21 Q92.839,41.957 92.839,43.188 Q92.839,44.131 92.276,44.863 Q91.907,45.35 91.063,45.947 L90.396,46.422 Q89.769,46.867 89.537,47.066 Q89.306,47.266 89.147,47.529 L92.856,47.529 L92.856,49 z" fill="#AAAAAA"/>
    <path d="M95.294,46.393 Q95.294,46.902 95.458,47.236 Q95.763,47.852 96.565,47.852 Q97.058,47.852 97.424,47.515 Q97.79,47.178 97.79,46.545 Q97.79,45.707 97.11,45.426 Q96.724,45.268 95.892,45.268 L95.892,44.072 Q96.706,44.061 97.028,43.914 Q97.585,43.668 97.585,42.918 Q97.585,42.432 97.301,42.127 Q97.017,41.822 96.501,41.822 Q95.909,41.822 95.631,42.197 Q95.353,42.572 95.364,43.199 L93.806,43.199 Q93.829,42.566 94.022,41.998 Q94.228,41.5 94.667,41.078 Q94.995,40.779 95.446,40.621 Q95.897,40.463 96.554,40.463 Q97.772,40.463 98.52,41.093 Q99.267,41.723 99.267,42.783 Q99.267,43.533 98.821,44.049 Q98.54,44.371 98.235,44.488 Q98.464,44.488 98.892,44.881 Q99.53,45.473 99.53,46.498 Q99.53,47.576 98.783,48.394 Q98.036,49.211 96.571,49.211 Q94.767,49.211 94.063,48.033 Q93.694,47.406 93.653,46.393 z" fill="#AAAAAA"/>
    <path d="M146.265,47.172 L145.304,47.172 L145.304,49 L143.669,49 L143.669,47.172 L140.306,47.172 L140.306,45.713 L143.429,40.557 L145.304,40.557 L145.304,45.865 L146.265,45.865 z M143.669,45.865 L143.669,42.197 L141.542,45.865 z" fill="#AAAAAA"/>
    <path d="M148.644,46.727 Q148.743,47.271 149.024,47.567 Q149.306,47.863 149.845,47.863 Q150.466,47.863 150.791,47.427 Q151.116,46.99 151.116,46.328 Q151.116,45.678 150.812,45.229 Q150.507,44.781 149.862,44.781 Q149.558,44.781 149.335,44.857 Q148.942,44.998 148.743,45.379 L147.243,45.309 L147.841,40.615 L152.522,40.615 L152.522,42.033 L149.048,42.033 L148.743,43.891 Q149.13,43.639 149.347,43.557 Q149.71,43.422 150.231,43.422 Q151.286,43.422 152.071,44.131 Q152.856,44.84 152.856,46.193 Q152.856,47.371 152.101,48.297 Q151.345,49.223 149.839,49.223 Q148.626,49.223 147.847,48.572 Q147.067,47.922 146.979,46.727 z" fill="#AAAAAA"/>
    <path d="M155.388,46.311 Q155.388,46.996 155.757,47.43 Q156.126,47.863 156.694,47.863 Q157.251,47.863 157.57,47.444 Q157.89,47.025 157.89,46.357 Q157.89,45.613 157.526,45.218 Q157.163,44.822 156.636,44.822 Q156.208,44.822 155.88,45.08 Q155.388,45.461 155.388,46.311 z M157.737,42.643 Q157.737,42.438 157.579,42.191 Q157.31,41.793 156.765,41.793 Q155.95,41.793 155.604,42.707 Q155.417,43.211 155.347,44.195 Q155.657,43.826 156.067,43.656 Q156.478,43.486 157.005,43.486 Q158.136,43.486 158.859,44.254 Q159.583,45.021 159.583,46.217 Q159.583,47.406 158.874,48.314 Q158.165,49.223 156.671,49.223 Q155.065,49.223 154.304,47.881 Q153.712,46.832 153.712,45.174 Q153.712,44.201 153.794,43.592 Q153.94,42.508 154.362,41.787 Q154.726,41.172 155.314,40.797 Q155.903,40.422 156.724,40.422 Q157.907,40.422 158.61,41.028 Q159.313,41.635 159.401,42.643 z" fill="#AAAAAA"/>
    <g>
      <path d="M30,71.5 C29.034,71.5 28.25,70.716 28.25,69.75 C28.25,68.784 29.034,68 30,68 C30.966,68 31.75,68.784 31.75,69.75 C31.75,70.716 30.966,71.5 30,71.5 z" fill="#AAAAAA"/>
      <path d="M30,76.75 C29.034,76.75 28.25,75.966 28.25,75 C28.25,74.034 29.034,73.25 30,73.25 C30.966,73.25 31.75,74.034 31.75,75 C31.75,75.966 30.966,76.75 30,76.75 z" fill="#AAAAAA"/>
      <path d="M30,82 C29.034,82 28.25,81.216 28.25,80.25 C28.25,79.284 29.034,78.5 30,78.5 C30.966,78.5 31.75,79.284 31.75,80.25 C31.75,81.216 30.966,82 30,82 z" fill="#AAAAAA"/>
    </g>
    <g>
      <path d="M90,71.5 C89.034,71.5 88.25,70.716 88.25,69.75 C88.25,68.784 89.034,68 90,68 C90.966,68 91.75,68.784 91.75,69.75 C91.75,70.716 90.966,71.5 90,71.5 z" fill="#AAAAAA"/>
      <path d="M90,76.75 C89.034,76.75 88.25,75.966 88.25,75 C88.25,74.034 89.034,73.25 90,73.25 C90.966,73.25 91.75,74.034 91.75,75 C91.75,75.966 90.966,76.75 90,76.75 z" fill="#AAAAAA"/>
      <path d="M90,82 C89.034,82 88.25,81.216 88.25,80.25 C88.25,79.284 89.034,78.5 90,78.5 C90.966,78.5 91.75,79.284 91.75,80.25 C91.75,81.216 90.966,82 90,82 z" fill="#AAAAAA"/>
    </g>
    <g>
      <path d="M150,71.5 C149.034,71.5 148.25,70.716 148.25,69.75 C148.25,68.784 149.034,68 150,68 C150.966,68 151.75,68.784 151.75,69.75 C151.75,70.716 150.966,71.5 150,71.5 z" fill="#AAAAAA"/>
      <path d="M150,76.75 C149.034,76.75 148.25,75.966 148.25,75 C148.25,74.034 149.034,73.25 150,73.25 C150.966,73.25 151.75,74.034 151.75,75 C151.75,75.966 150.966,76.75 150,76.75 z" fill="#AAAAAA"/>
      <path d="M150,82 C149.034,82 148.25,81.216 148.25,80.25 C148.25,79.284 149.034,78.5 150,78.5 C150.966,78.5 151.75,79.284 151.75,80.25 C151.75,81.216 150.966,82 150,82 z" fill="#AAAAAA"/>
    </g>
  </g>
</svg>
