<?xml version="1.0" encoding="UTF-8"?>
<!DOCTYPE svg PUBLIC "-//W3C//DTD SVG 1.1//EN" "http://www.w3.org/Graphics/SVG/1.1/DTD/svg11.dtd">
<svg version="1.1" xmlns="http://www.w3.org/2000/svg" xmlns:xlink="http://www.w3.org/1999/xlink" x="0" y="0" width="64" height="64" viewBox="0, 0, 64, 64">
  <g id="Layer_1">
    <path d="M32,0 C49.673,0 64,14.327 64,32 C64,49.673 49.673,64 32,64 C14.327,64 0,49.673 0,32 C0,14.327 14.327,0 32,0 z M32,2 C15.984,2 3,14.984 3,31 C3,47.016 15.984,60 32,60 C48.016,60 61,47.016 61,31 C61,14.984 48.016,2 32,2 z" fill="#EAEAEA"/>
    <path d="M41.19,43.593 C44.892,43.593 47.893,46.595 47.893,50.297 C47.893,53.998 44.892,57 41.19,57 C37.489,57 34.487,53.998 34.487,50.297 C34.487,48.583 35.137,46.955 36.294,45.719 L33.284,39.712 C32.991,39.747 32.696,39.764 32.4,39.764 C30.899,39.764 29.45,39.314 28.223,38.476 L24.815,41.477 C24.839,41.653 24.85,41.831 24.85,42.009 C24.85,44.267 23.018,46.099 20.76,46.099 C18.502,46.099 16.67,44.267 16.67,42.009 C16.67,39.751 18.502,37.919 20.76,37.919 C21.15,37.919 21.535,37.974 21.907,38.083 L25.457,34.957 C25.276,34.476 25.147,33.978 25.07,33.47 L16.607,32.33 C15.449,34.482 13.192,35.857 10.703,35.857 C7.002,35.857 4,32.855 4,29.154 C4,25.452 7.002,22.45 10.703,22.45 C13.96,22.45 16.709,24.786 17.293,27.917 L25.753,29.058 C25.81,28.944 25.869,28.832 25.931,28.721 L19.466,22.12 C18.627,22.484 17.722,22.671 16.801,22.671 C13.099,22.671 10.098,19.67 10.098,15.968 C10.098,12.267 13.099,9.265 16.801,9.265 C19.072,9.265 21.164,10.411 22.394,12.274 L32.171,9.808 C32.61,6.521 35.427,4 38.815,4 C42.516,4 45.518,7.002 45.518,10.703 C45.518,14.313 42.663,17.257 39.089,17.401 L36.44,26.129 C38.529,27.486 39.816,29.815 39.816,32.348 C39.816,34.475 38.911,36.472 37.351,37.87 L40.251,43.659 C40.561,43.615 40.875,43.593 41.19,43.593 z M32.14,24.937 L34.825,16.09 C34.14,15.582 33.556,14.946 33.107,14.22 L23.469,16.65 C23.383,17.501 23.136,18.324 22.738,19.081 L29.186,25.664 C30.108,25.22 31.112,24.973 32.14,24.937 z" fill="#EAEAEA"/>
  </g>
</svg>
